<svg width="32" height="32" viewBox="0 0 32 32" fill="none" xmlns="http://www.w3.org/2000/svg">
<path d="M26.0029 6.39453L18.6704 13.8218L16.5458 15.9984L26.0029 25.6023V21.2681L20.8137 15.9984L26.0029 10.7096V6.39453Z" fill="#92B900"/>
<path d="M5.99805 6.39453L13.3306 13.8218L15.4551 15.9984L5.99805 25.6023V21.2681L11.206 15.9984L5.99805 10.7096V6.39453Z" fill="#92B900"/>
<path d="M16 1.96515C16.1765 1.96515 16.3196 1.81983 16.3196 1.64057C16.3196 1.46131 16.1765 1.31599 16 1.31599C15.8234 1.31599 15.6803 1.46131 15.6803 1.64057C15.6803 1.81983 15.8234 1.96515 16 1.96515Z" fill="#A5BCD5"/>
<path d="M13.2736 0.458236C13.3982 0.458236 13.4992 0.355656 13.4992 0.229118C13.4992 0.10258 13.3982 0 13.2736 0C13.149 0 13.048 0.10258 13.048 0.229118C13.048 0.355656 13.149 0.458236 13.2736 0.458236Z" fill="#A5BCD5"/>
<path d="M13.8752 4.18206C14.1037 4.18206 14.2889 3.99399 14.2889 3.76201C14.2889 3.53002 14.1037 3.34196 13.8752 3.34196C13.6468 3.34196 13.4616 3.53002 13.4616 3.76201C13.4616 3.99399 13.6468 4.18206 13.8752 4.18206Z" fill="#A5BCD5"/>
<path d="M16 30.6826C16.1765 30.6826 16.3196 30.5373 16.3196 30.358C16.3196 30.1788 16.1765 30.0334 16 30.0334C15.8234 30.0334 15.6803 30.1788 15.6803 30.358C15.6803 30.5373 15.8234 30.6826 16 30.6826Z" fill="#A5BCD5"/>
<path d="M11.1682 2.82442C11.3447 2.82442 11.4878 2.6791 11.4878 2.49984C11.4878 2.32057 11.3447 2.17525 11.1682 2.17525C10.9917 2.17525 10.8486 2.32057 10.8486 2.49984C10.8486 2.6791 10.9917 2.82442 11.1682 2.82442Z" fill="#A5BCD5"/>
<path d="M20.8319 29.8046C21.0084 29.8046 21.1515 29.6592 21.1515 29.48C21.1515 29.3007 21.0084 29.1554 20.8319 29.1554C20.6554 29.1554 20.5123 29.3007 20.5123 29.48C20.5123 29.6592 20.6554 29.8046 20.8319 29.8046Z" fill="#A5BCD5"/>
<path d="M6.91888 5.32532C7.09541 5.32532 7.23851 5.18 7.23851 5.00074C7.23851 4.82148 7.09541 4.67616 6.91888 4.67616C6.74236 4.67616 6.59926 4.82148 6.59926 5.00074C6.59926 5.18 6.74236 5.32532 6.91888 5.32532Z" fill="#A5BCD5"/>
<path d="M25.0997 27.3219C25.2762 27.3219 25.4193 27.1766 25.4193 26.9973C25.4193 26.818 25.2762 26.6727 25.0997 26.6727C24.9232 26.6727 24.7801 26.818 24.7801 26.9973C24.7801 27.1766 24.9232 27.3219 25.0997 27.3219Z" fill="#A5BCD5"/>
<path d="M3.76023 9.1466C3.93675 9.1466 4.07985 9.00128 4.07985 8.82201C4.07985 8.64275 3.93675 8.49743 3.76023 8.49743C3.5837 8.49743 3.4406 8.64275 3.4406 8.82201C3.4406 9.00128 3.5837 9.1466 3.76023 9.1466Z" fill="#A5BCD5"/>
<path d="M28.2585 23.5035C28.435 23.5035 28.5781 23.3582 28.5781 23.1789C28.5781 22.9997 28.435 22.8544 28.2585 22.8544C28.0819 22.8544 27.9388 22.9997 27.9388 23.1789C27.9388 23.3582 28.0819 23.5035 28.2585 23.5035Z" fill="#A5BCD5"/>
<path d="M2.08699 13.8228C2.26351 13.8228 2.40661 13.6774 2.40661 13.4982C2.40661 13.3189 2.26351 13.1736 2.08699 13.1736C1.91047 13.1736 1.76737 13.3189 1.76737 13.4982C1.76737 13.6774 1.91047 13.8228 2.08699 13.8228Z" fill="#A5BCD5"/>
<path d="M29.9317 18.8064C30.1083 18.8064 30.2514 18.661 30.2514 18.4818C30.2514 18.3025 30.1083 18.1572 29.9317 18.1572C29.7552 18.1572 29.6121 18.3025 29.6121 18.4818C29.6121 18.661 29.7552 18.8064 29.9317 18.8064Z" fill="#A5BCD5"/>
<path d="M2.08699 18.8064C2.26351 18.8064 2.40661 18.661 2.40661 18.4818C2.40661 18.3025 2.26351 18.1572 2.08699 18.1572C1.91047 18.1572 1.76737 18.3025 1.76737 18.4818C1.76737 18.661 1.91047 18.8064 2.08699 18.8064Z" fill="#A5BCD5"/>
<path d="M29.9317 13.8228C30.1083 13.8228 30.2514 13.6774 30.2514 13.4982C30.2514 13.3189 30.1083 13.1736 29.9317 13.1736C29.7552 13.1736 29.6121 13.3189 29.6121 13.4982C29.6121 13.6774 29.7552 13.8228 29.9317 13.8228Z" fill="#A5BCD5"/>
<path d="M3.76023 23.5035C3.93675 23.5035 4.07985 23.3582 4.07985 23.1789C4.07985 22.9997 3.93675 22.8544 3.76023 22.8544C3.5837 22.8544 3.4406 22.9997 3.4406 23.1789C3.4406 23.3582 3.5837 23.5035 3.76023 23.5035Z" fill="#A5BCD5"/>
<path d="M28.2585 9.1466C28.435 9.1466 28.5781 9.00128 28.5781 8.82201C28.5781 8.64275 28.435 8.49743 28.2585 8.49743C28.0819 8.49743 27.9388 8.64275 27.9388 8.82201C27.9388 9.00128 28.0819 9.1466 28.2585 9.1466Z" fill="#A5BCD5"/>
<path d="M6.91888 27.3219C7.09541 27.3219 7.23851 27.1766 7.23851 26.9973C7.23851 26.818 7.09541 26.6727 6.91888 26.6727C6.74236 26.6727 6.59926 26.818 6.59926 26.9973C6.59926 27.1766 6.74236 27.3219 6.91888 27.3219Z" fill="#A5BCD5"/>
<path d="M25.0997 5.32532C25.2762 5.32532 25.4193 5.18 25.4193 5.00074C25.4193 4.82148 25.2762 4.67616 25.0997 4.67616C24.9232 4.67616 24.7801 4.82148 24.7801 5.00074C24.7801 5.18 24.9232 5.32532 25.0997 5.32532Z" fill="#A5BCD5"/>
<path d="M11.1682 29.8046C11.3447 29.8046 11.4878 29.6592 11.4878 29.48C11.4878 29.3007 11.3447 29.1554 11.1682 29.1554C10.9917 29.1554 10.8486 29.3007 10.8486 29.48C10.8486 29.6592 10.9917 29.8046 11.1682 29.8046Z" fill="#A5BCD5"/>
<path d="M20.8319 2.82442C21.0084 2.82442 21.1515 2.6791 21.1515 2.49984C21.1515 2.32057 21.0084 2.17525 20.8319 2.17525C20.6554 2.17525 20.5123 2.32057 20.5123 2.49984C20.5123 2.6791 20.6554 2.82442 20.8319 2.82442Z" fill="#A5BCD5"/>
<path d="M18.745 32C18.8696 32 18.9707 31.8974 18.9707 31.7709C18.9707 31.6443 18.8696 31.5418 18.745 31.5418C18.6204 31.5418 18.5194 31.6443 18.5194 31.7709C18.5194 31.8974 18.6204 32 18.745 32Z" fill="#A5BCD5"/>
<path d="M8.1223 2.34853C8.2469 2.34853 8.34791 2.24595 8.34791 2.11941C8.34791 1.99287 8.2469 1.89029 8.1223 1.89029C7.99769 1.89029 7.89668 1.99287 7.89668 2.11941C7.89668 2.24595 7.99769 2.34853 8.1223 2.34853Z" fill="#A5BCD5"/>
<path d="M23.8967 30.0902C24.0213 30.0902 24.1223 29.9876 24.1223 29.861C24.1223 29.7345 24.0213 29.6319 23.8967 29.6319C23.7721 29.6319 23.671 29.7345 23.671 29.861C23.671 29.9876 23.7721 30.0902 23.8967 30.0902Z" fill="#A5BCD5"/>
<path d="M3.92962 5.91823C4.05423 5.91823 4.15524 5.81565 4.15524 5.68911C4.15524 5.56257 4.05423 5.45999 3.92962 5.45999C3.80502 5.45999 3.70401 5.56257 3.70401 5.68911C3.70401 5.81565 3.80502 5.91823 3.92962 5.91823Z" fill="#A5BCD5"/>
<path d="M28.0893 26.5204C28.2139 26.5204 28.3149 26.4179 28.3149 26.2913C28.3149 26.1648 28.2139 26.0622 28.0893 26.0622C27.9647 26.0622 27.8637 26.1648 27.8637 26.2913C27.8637 26.4179 27.9647 26.5204 28.0893 26.5204Z" fill="#A5BCD5"/>
<path d="M1.18481 10.7511C1.30941 10.7511 1.41042 10.6485 1.41042 10.522C1.41042 10.3954 1.30941 10.2928 1.18481 10.2928C1.0602 10.2928 0.959189 10.3954 0.959189 10.522C0.959189 10.6485 1.0602 10.7511 1.18481 10.7511Z" fill="#A5BCD5"/>
<path d="M30.8154 21.7087C30.94 21.7087 31.041 21.6061 31.041 21.4796C31.041 21.3531 30.94 21.2505 30.8154 21.2505C30.6908 21.2505 30.5898 21.3531 30.5898 21.4796C30.5898 21.6061 30.6908 21.7087 30.8154 21.7087Z" fill="#A5BCD5"/>
<path d="M0.225616 16.2278C0.35022 16.2278 0.451232 16.1252 0.451232 15.9987C0.451232 15.8722 0.35022 15.7696 0.225616 15.7696C0.101012 15.7696 0 15.8722 0 15.9987C0 16.1252 0.101012 16.2278 0.225616 16.2278Z" fill="#A5BCD5"/>
<path d="M31.7744 16.2278C31.899 16.2278 32 16.1252 32 15.9987C32 15.8722 31.899 15.7696 31.7744 15.7696C31.6498 15.7696 31.5488 15.8722 31.5488 15.9987C31.5488 16.1252 31.6498 16.2278 31.7744 16.2278Z" fill="#A5BCD5"/>
<path d="M1.18481 21.7087C1.30941 21.7087 1.41042 21.6061 1.41042 21.4796C1.41042 21.3531 1.30941 21.2505 1.18481 21.2505C1.0602 21.2505 0.959189 21.3531 0.959189 21.4796C0.959189 21.6061 1.0602 21.7087 1.18481 21.7087Z" fill="#A5BCD5"/>
<path d="M30.8154 10.7511C30.94 10.7511 31.041 10.6485 31.041 10.522C31.041 10.3954 30.94 10.2928 30.8154 10.2928C30.6908 10.2928 30.5898 10.3954 30.5898 10.522C30.5898 10.6485 30.6908 10.7511 30.8154 10.7511Z" fill="#A5BCD5"/>
<path d="M3.92962 26.5204C4.05423 26.5204 4.15524 26.4179 4.15524 26.2913C4.15524 26.1648 4.05423 26.0622 3.92962 26.0622C3.80502 26.0622 3.70401 26.1648 3.70401 26.2913C3.70401 26.4179 3.80502 26.5204 3.92962 26.5204Z" fill="#A5BCD5"/>
<path d="M28.0893 5.91823C28.2139 5.91823 28.3149 5.81565 28.3149 5.68911C28.3149 5.56257 28.2139 5.45999 28.0893 5.45999C27.9647 5.45999 27.8637 5.56257 27.8637 5.68911C27.8637 5.81565 27.9647 5.91823 28.0893 5.91823Z" fill="#A5BCD5"/>
<path d="M8.1223 30.0902C8.2469 30.0902 8.34791 29.9876 8.34791 29.861C8.34791 29.7345 8.2469 29.6319 8.1223 29.6319C7.99769 29.6319 7.89668 29.7345 7.89668 29.861C7.89668 29.9876 7.99769 30.0902 8.1223 30.0902Z" fill="#A5BCD5"/>
<path d="M23.8967 2.34853C24.0213 2.34853 24.1223 2.24595 24.1223 2.11941C24.1223 1.99287 24.0213 1.89029 23.8967 1.89029C23.7721 1.89029 23.671 1.99287 23.671 2.11941C23.671 2.24595 23.7721 2.34853 23.8967 2.34853Z" fill="#A5BCD5"/>
<path d="M13.2736 32C13.3982 32 13.4992 31.8974 13.4992 31.7709C13.4992 31.6443 13.3982 31.5418 13.2736 31.5418C13.149 31.5418 13.048 31.6443 13.048 31.7709C13.048 31.8974 13.149 32 13.2736 32Z" fill="#A5BCD5"/>
<path d="M18.745 0.458236C18.8696 0.458236 18.9707 0.355656 18.9707 0.229118C18.9707 0.10258 18.8696 0 18.745 0C18.6204 0 18.5194 0.10258 18.5194 0.229118C18.5194 0.355656 18.6204 0.458236 18.745 0.458236Z" fill="#A5BCD5"/>
<path d="M18.1245 28.6585C18.353 28.6585 18.5382 28.4704 18.5382 28.2384C18.5382 28.0065 18.353 27.8184 18.1245 27.8184C17.8961 27.8184 17.7109 28.0065 17.7109 28.2384C17.7109 28.4704 17.8961 28.6585 18.1245 28.6585Z" fill="#A5BCD5"/>
<path d="M9.88949 5.65182C10.1179 5.65182 10.3031 5.46376 10.3031 5.23177C10.3031 4.99978 10.1179 4.81172 9.88949 4.81172C9.66105 4.81172 9.47586 4.99978 9.47586 5.23177C9.47586 5.46376 9.66105 5.65182 9.88949 5.65182Z" fill="#A5BCD5"/>
<path d="M22.1291 27.1692C22.3576 27.1692 22.5428 26.9811 22.5428 26.7491C22.5428 26.5171 22.3576 26.3291 22.1291 26.3291C21.9007 26.3291 21.7155 26.5171 21.7155 26.7491C21.7155 26.9811 21.9007 27.1692 22.1291 27.1692Z" fill="#A5BCD5"/>
<path d="M4.51234 12.164C4.74078 12.164 4.92597 11.9759 4.92597 11.7439C4.92597 11.5119 4.74078 11.3239 4.51234 11.3239C4.2839 11.3239 4.09871 11.5119 4.09871 11.7439C4.09871 11.9759 4.2839 12.164 4.51234 12.164Z" fill="#A5BCD5"/>
<path d="M27.5064 20.6585C27.7348 20.6585 27.92 20.4704 27.92 20.2384C27.92 20.0064 27.7348 19.8184 27.5064 19.8184C27.2779 19.8184 27.0928 20.0064 27.0928 20.2384C27.0928 20.4704 27.2779 20.6585 27.5064 20.6585Z" fill="#A5BCD5"/>
<path d="M3.76023 16.4196C3.98867 16.4196 4.17386 16.2315 4.17386 15.9996C4.17386 15.7676 3.98867 15.5795 3.76023 15.5795C3.53179 15.5795 3.3466 15.7676 3.3466 15.9996C3.3466 16.2315 3.53179 16.4196 3.76023 16.4196Z" fill="#A5BCD5"/>
<path d="M28.2396 16.4196C28.4681 16.4196 28.6533 16.2315 28.6533 15.9996C28.6533 15.7676 28.4681 15.5795 28.2396 15.5795C28.0112 15.5795 27.826 15.7676 27.826 15.9996C27.826 16.2315 28.0112 16.4196 28.2396 16.4196Z" fill="#A5BCD5"/>
<path d="M4.51234 20.6585C4.74078 20.6585 4.92597 20.4704 4.92597 20.2384C4.92597 20.0064 4.74078 19.8184 4.51234 19.8184C4.2839 19.8184 4.09871 20.0064 4.09871 20.2384C4.09871 20.4704 4.2839 20.6585 4.51234 20.6585Z" fill="#A5BCD5"/>
<path d="M27.5064 12.164C27.7348 12.164 27.92 11.9759 27.92 11.7439C27.92 11.5119 27.7348 11.3239 27.5064 11.3239C27.2779 11.3239 27.0928 11.5119 27.0928 11.7439C27.0928 11.9759 27.2779 12.164 27.5064 12.164Z" fill="#A5BCD5"/>
<path d="M9.88949 27.1692C10.1179 27.1692 10.3031 26.9811 10.3031 26.7491C10.3031 26.5171 10.1179 26.3291 9.88949 26.3291C9.66105 26.3291 9.47586 26.5171 9.47586 26.7491C9.47586 26.9811 9.66105 27.1692 9.88949 27.1692Z" fill="#A5BCD5"/>
<path d="M22.1291 5.65182C22.3576 5.65182 22.5428 5.46376 22.5428 5.23177C22.5428 4.99978 22.3576 4.81172 22.1291 4.81172C21.9007 4.81172 21.7155 4.99978 21.7155 5.23177C21.7155 5.46376 21.9007 5.65182 22.1291 5.65182Z" fill="#A5BCD5"/>
<path d="M13.8752 28.6585C14.1037 28.6585 14.2889 28.4704 14.2889 28.2384C14.2889 28.0065 14.1037 27.8184 13.8752 27.8184C13.6468 27.8184 13.4616 28.0065 13.4616 28.2384C13.4616 28.4704 13.6468 28.6585 13.8752 28.6585Z" fill="#A5BCD5"/>
<path d="M18.1245 4.18206C18.353 4.18206 18.5382 3.99399 18.5382 3.76201C18.5382 3.53002 18.353 3.34196 18.1245 3.34196C17.8961 3.34196 17.7109 3.53002 17.7109 3.76201C17.7109 3.99399 17.8961 4.18206 18.1245 4.18206Z" fill="#A5BCD5"/>
<path d="M16 26.9783C16.27 26.9783 16.4889 26.756 16.4889 26.4819C16.4889 26.2077 16.27 25.9854 16 25.9854C15.73 25.9854 15.5112 26.2077 15.5112 26.4819C15.5112 26.756 15.73 26.9783 16 26.9783Z" fill="#A5BCD5"/>
<path d="M16 5.99454C16.27 5.99454 16.4889 5.77228 16.4889 5.49812C16.4889 5.22395 16.27 5.0017 16 5.0017C15.73 5.0017 15.5112 5.22395 15.5112 5.49812C15.5112 5.77228 15.73 5.99454 16 5.99454Z" fill="#A5BCD5"/>
<path d="M19.5346 26.3481C19.8046 26.3481 20.0235 26.1258 20.0235 25.8517C20.0235 25.5775 19.8046 25.3553 19.5346 25.3553C19.2647 25.3553 19.0458 25.5775 19.0458 25.8517C19.0458 26.1258 19.2647 26.3481 19.5346 26.3481Z" fill="#A5BCD5"/>
<path d="M12.4652 6.62471C12.7352 6.62471 12.954 6.40246 12.954 6.12829C12.954 5.85412 12.7352 5.63187 12.4652 5.63187C12.1952 5.63187 11.9764 5.85412 11.9764 6.12829C11.9764 6.40246 12.1952 6.62471 12.4652 6.62471Z" fill="#A5BCD5"/>
<path d="M22.6369 24.5346C22.9068 24.5346 23.1257 24.3123 23.1257 24.0382C23.1257 23.764 22.9068 23.5417 22.6369 23.5417C22.3669 23.5417 22.148 23.764 22.148 24.0382C22.148 24.3123 22.3669 24.5346 22.6369 24.5346Z" fill="#A5BCD5"/>
<path d="M9.36293 8.45925C9.63291 8.45925 9.85176 8.23699 9.85176 7.96283C9.85176 7.68866 9.63291 7.4664 9.36293 7.4664C9.09295 7.4664 8.87409 7.68866 8.87409 7.96283C8.87409 8.23699 9.09295 8.45925 9.36293 8.45925Z" fill="#A5BCD5"/>
<path d="M26.1716 18.309C26.4416 18.309 26.6605 18.0867 26.6605 17.8126C26.6605 17.5384 26.4416 17.3161 26.1716 17.3161C25.9017 17.3161 25.6828 17.5384 25.6828 17.8126C25.6828 18.0867 25.9017 18.309 26.1716 18.309Z" fill="#A5BCD5"/>
<path d="M5.82843 14.6638C6.09841 14.6638 6.31727 14.4416 6.31727 14.1674C6.31727 13.8933 6.09841 13.671 5.82843 13.671C5.55846 13.671 5.3396 13.8933 5.3396 14.1674C5.3396 14.4416 5.55846 14.6638 5.82843 14.6638Z" fill="#A5BCD5"/>
<path d="M26.1716 14.6638C26.4416 14.6638 26.6605 14.4416 26.6605 14.1674C26.6605 13.8933 26.4416 13.671 26.1716 13.671C25.9017 13.671 25.6828 13.8933 25.6828 14.1674C25.6828 14.4416 25.9017 14.6638 26.1716 14.6638Z" fill="#A5BCD5"/>
<path d="M5.82843 18.309C6.09841 18.309 6.31727 18.0867 6.31727 17.8126C6.31727 17.5384 6.09841 17.3161 5.82843 17.3161C5.55846 17.3161 5.3396 17.5384 5.3396 17.8126C5.3396 18.0867 5.55846 18.309 5.82843 18.309Z" fill="#A5BCD5"/>
<path d="M22.6369 8.45925C22.9068 8.45925 23.1257 8.23699 23.1257 7.96283C23.1257 7.68866 22.9068 7.4664 22.6369 7.4664C22.3669 7.4664 22.148 7.68866 22.148 7.96283C22.148 8.23699 22.3669 8.45925 22.6369 8.45925Z" fill="#A5BCD5"/>
<path d="M9.36293 24.5346C9.63291 24.5346 9.85176 24.3123 9.85176 24.0382C9.85176 23.764 9.63291 23.5417 9.36293 23.5417C9.09295 23.5417 8.87409 23.764 8.87409 24.0382C8.87409 24.3123 9.09295 24.5346 9.36293 24.5346Z" fill="#A5BCD5"/>
<path d="M19.5346 6.62471C19.8046 6.62471 20.0235 6.40246 20.0235 6.12829C20.0235 5.85412 19.8046 5.63187 19.5346 5.63187C19.2647 5.63187 19.0458 5.85412 19.0458 6.12829C19.0458 6.40246 19.2647 6.62471 19.5346 6.62471Z" fill="#A5BCD5"/>
<path d="M12.4652 26.3481C12.7352 26.3481 12.954 26.1258 12.954 25.8517C12.954 25.5775 12.7352 25.3553 12.4652 25.3553C12.1952 25.3553 11.9764 25.5775 11.9764 25.8517C11.9764 26.1258 12.1952 26.3481 12.4652 26.3481Z" fill="#A5BCD5"/>
<path d="M14.5898 8.4396C14.9221 8.4396 15.1915 8.16606 15.1915 7.82862C15.1915 7.49119 14.9221 7.21764 14.5898 7.21764C14.2576 7.21764 13.9882 7.49119 13.9882 7.82862C13.9882 8.16606 14.2576 8.4396 14.5898 8.4396Z" fill="#A5BCD5"/>
<path d="M17.4289 24.7065C17.73 24.7065 17.9741 24.4586 17.9741 24.1528C17.9741 23.847 17.73 23.5991 17.4289 23.5991C17.1278 23.5991 16.8837 23.847 16.8837 24.1528C16.8837 24.4586 17.1278 24.7065 17.4289 24.7065Z" fill="#A5BCD5"/>
<path d="M11.939 9.41195C12.2712 9.41195 12.5406 9.1384 12.5406 8.80097C12.5406 8.46353 12.2712 8.18999 11.939 8.18999C11.6067 8.18999 11.3373 8.46353 11.3373 8.80097C11.3373 9.1384 11.6067 9.41195 11.939 9.41195Z" fill="#A5BCD5"/>
<path d="M20.0987 23.7145C20.3998 23.7145 20.6439 23.4666 20.6439 23.1608C20.6439 22.855 20.3998 22.6071 20.0987 22.6071C19.7976 22.6071 19.5534 22.855 19.5534 23.1608C19.5534 23.4666 19.7976 23.7145 20.0987 23.7145Z" fill="#A5BCD5"/>
<path d="M7.85886 16.5527C8.19114 16.5527 8.4605 16.2792 8.4605 15.9417C8.4605 15.6043 8.19114 15.3307 7.85886 15.3307C7.52658 15.3307 7.25721 15.6043 7.25721 15.9417C7.25721 16.2792 7.52658 16.5527 7.85886 16.5527Z" fill="#A5BCD5"/>
<path d="M24.1785 16.4969C24.4796 16.4969 24.7237 16.249 24.7237 15.9432C24.7237 15.6374 24.4796 15.3895 24.1785 15.3895C23.8774 15.3895 23.6333 15.6374 23.6333 15.9432C23.6333 16.249 23.8774 16.4969 24.1785 16.4969Z" fill="#A5BCD5"/>
<path d="M11.9011 23.713C12.2334 23.713 12.5028 23.4395 12.5028 23.102C12.5028 22.7646 12.2334 22.491 11.9011 22.491C11.5689 22.491 11.2995 22.7646 11.2995 23.102C11.2995 23.4395 11.5689 23.713 11.9011 23.713Z" fill="#A5BCD5"/>
<path d="M20.061 9.29739C20.3622 9.29739 20.6063 9.04949 20.6063 8.74369C20.6063 8.43789 20.3622 8.18999 20.061 8.18999C19.7599 8.18999 19.5158 8.43789 19.5158 8.74369C19.5158 9.04949 19.7599 9.29739 20.061 9.29739Z" fill="#A5BCD5"/>
<path d="M14.5523 24.7065C14.8846 24.7065 15.154 24.4329 15.154 24.0955C15.154 23.7581 14.8846 23.4845 14.5523 23.4845C14.22 23.4845 13.9507 23.7581 13.9507 24.0955C13.9507 24.4329 14.22 24.7065 14.5523 24.7065Z" fill="#A5BCD5"/>
<path d="M17.3724 8.32504C17.6736 8.32504 17.9177 8.07714 17.9177 7.77134C17.9177 7.46554 17.6736 7.21764 17.3724 7.21764C17.0713 7.21764 16.8272 7.46554 16.8272 7.77134C16.8272 8.07714 17.0713 8.32504 17.3724 8.32504Z" fill="#A5BCD5"/>
<path d="M15.9999 10.7495C16.3737 10.7495 16.6768 10.4418 16.6768 10.0621C16.6768 9.68253 16.3737 9.37479 15.9999 9.37479C15.6261 9.37479 15.3231 9.68253 15.3231 10.0621C15.3231 10.4418 15.6261 10.7495 15.9999 10.7495Z" fill="#A5BCD5"/>
<path d="M15.9999 13.4795C16.436 13.4795 16.7895 13.1205 16.7895 12.6776C16.7895 12.2347 16.436 11.8757 15.9999 11.8757C15.5638 11.8757 15.2102 12.2347 15.2102 12.6776C15.2102 13.1205 15.5638 13.4795 15.9999 13.4795Z" fill="#A5BCD5"/>
<path d="M15.9999 20.1048C16.436 20.1048 16.7895 19.7457 16.7895 19.3028C16.7895 18.86 16.436 18.5009 15.9999 18.5009C15.5638 18.5009 15.2102 18.86 15.2102 19.3028C15.2102 19.7457 15.5638 20.1048 15.9999 20.1048Z" fill="#A5BCD5"/>
<path d="M15.9999 22.6252C16.3737 22.6252 16.6768 22.3175 16.6768 21.9378C16.6768 21.5582 16.3737 21.2505 15.9999 21.2505C15.6261 21.2505 15.3231 21.5582 15.3231 21.9378C15.3231 22.3175 15.6261 22.6252 15.9999 22.6252Z" fill="#A5BCD5"/>
<path d="M13.7627 11.1882C14.1365 11.1882 14.4395 10.8805 14.4395 10.5009C14.4395 10.1213 14.1365 9.81353 13.7627 9.81353C13.3889 9.81353 13.0858 10.1213 13.0858 10.5009C13.0858 10.8805 13.3889 11.1882 13.7627 11.1882Z" fill="#A5BCD5"/>
<path d="M18.2371 22.167C18.6109 22.167 18.9139 21.8593 18.9139 21.4797C18.9139 21.1 18.6109 20.7923 18.2371 20.7923C17.8633 20.7923 17.5602 21.1 17.5602 21.4797C17.5602 21.8593 17.8633 22.167 18.2371 22.167Z" fill="#A5BCD5"/>
<path d="M13.7627 22.167C14.1365 22.167 14.4395 21.8593 14.4395 21.4797C14.4395 21.1 14.1365 20.7923 13.7627 20.7923C13.3889 20.7923 13.0858 21.1 13.0858 21.4797C13.0858 21.8593 13.3889 22.167 13.7627 22.167Z" fill="#A5BCD5"/>
<path d="M18.2371 11.1882C18.6109 11.1882 18.9139 10.8805 18.9139 10.5009C18.9139 10.1213 18.6109 9.81353 18.2371 9.81353C17.8633 9.81353 17.5602 10.1213 17.5602 10.5009C17.5602 10.8805 17.8633 11.1882 18.2371 11.1882Z" fill="#A5BCD5"/>
</svg>
